PathFileType	4	(X/Y/Z)	output.trc
DataRate	CameraRate	NumFrames	NumMarkers	Units	OrigDataRate	OrigDataStartFrame	OrigNumFrames
100	100	12	23	m	100	3775	6039
Frame#	Time	C7			T8			EL			EM			US			RS			AA			Fore_Clus_1			Fore_Clus_2			Fore_Clus_3			Fore_Clus_4			Hum_Clus_1			Hum_Clus_2			Hum_Clus_3			Hum_Clus_4			Thor_Clus_1			Thor_Clus_2			Thor_Clus_3			Thor_Clus_4			IJ			PX			GH			Thor_Clus_5		
		X1	Y1	Z1	X2	Y2	Z2	X3	Y3	Z3	X4	Y4	Z4	X5	Y5	Z5	X6	Y6	Z6	X7	Y7	Z7	X8	Y8	Z8	X9	Y9	Z9	X10	Y10	Z10	X11	Y11	Z11	X12	Y12	Z12	X13	Y13	Z13	X14	Y14	Z14	X15	Y15	Z15	X16	Y16	Z16	X17	Y17	Z17	X18	Y18	Z18	X19	Y19	Z19	X20	Y20	Z20	X21	Y21	Z21	X22	Y22	Z22	X23	Y23	Z23
3774	37.740000	-0.039855	1.442847	-0.083564	-0.030870	1.216496	-0.067166	-0.206994	1.096798	0.107433	-0.182630	1.064087	0.053631	-0.108991	1.095548	0.318829	-0.089457	1.135109	0.299015	-0.162907	1.358182	0.046955	-0.161799	1.108475	0.289852	-0.133987	1.115150	0.336464	-0.122648	1.138400	0.326299	-0.142965	1.145722	0.272891	-0.190969	1.206213	0.141656	-0.234605	1.217720	0.101537	-0.229451	1.281076	0.098035	-0.180442	1.278883	0.130633	0.089677	1.340100	0.042533	0.052741	1.295147	0.103693	0.052090	1.339462	0.066566	0.106954	1.295682	0.068440	0.022273	1.366529	-0.002527	0.065340	1.164031	0.082593	-0.133999	1.345617	0.043954	0.044790	1.314754	0.091830
3775	37.750000	-0.039827	1.442836	-0.083480	-0.030866	1.216482	-0.067107	-0.207021	1.096798	0.107537	-0.182654	1.064071	0.053745	-0.108984	1.095532	0.318886	-0.089457	1.135099	0.299078	-0.162901	1.358166	0.047016	-0.161804	1.108449	0.289907	-0.133977	1.115121	0.336511	-0.122640	1.138380	0.326351	-0.142961	1.145689	0.272941	-0.190976	1.206212	0.141791	-0.234615	1.217727	0.101598	-0.229437	1.281085	0.098102	-0.180435	1.278881	0.130710	0.089703	1.340090	0.042617	0.052735	1.295096	0.103798	0.052082	1.339430	0.066627	0.106955	1.295641	0.068519	0.022285	1.366502	-0.002444	0.065322	1.163990	0.082656	-0.133983	1.345591	0.044007	0.044779	1.314716	0.091912
3776	37.760000	-0.039805	1.442812	-0.083401	-0.030864	1.216457	-0.067039	-0.207058	1.096801	0.107640	-0.182688	1.064055	0.053861	-0.108978	1.095512	0.318937	-0.089454	1.135082	0.299131	-0.162897	1.358146	0.047080	-0.161803	1.108433	0.289967	-0.133973	1.115082	0.336558	-0.122654	1.138358	0.326406	-0.142953	1.145675	0.272976	-0.190966	1.206204	0.141848	-0.234618	1.217741	0.101673	-0.229439	1.281090	0.098179	-0.180432	1.278877	0.130774	0.089709	1.340014	0.042688	0.052722	1.295049	0.103861	0.052088	1.339388	0.066711	0.106954	1.295577	0.068590	0.022294	1.366468	-0.002365	0.065308	1.163949	0.082729	-0.133967	1.345565	0.044057	0.044788	1.314679	0.091984
3777	37.770000	-0.039788	1.442781	-0.083326	-0.030863	1.216425	-0.066967	-0.207097	1.096807	0.107740	-0.182722	1.064043	0.053974	-0.108982	1.095486	0.318984	-0.089453	1.135055	0.299179	-0.162893	1.358122	0.047147	-0.161803	1.108414	0.290012	-0.133972	1.115047	0.336591	-0.122818	1.138429	0.326556	-0.142938	1.145645	0.273014	-0.190981	1.206201	0.141903	-0.234624	1.217752	0.101737	-0.229442	1.281104	0.098249	-0.180461	1.278850	0.130854	0.089719	1.339970	0.042779	0.052730	1.294985	0.103933	0.052061	1.339324	0.066784	0.106952	1.295532	0.068671	0.022301	1.366432	-0.002287	0.065297	1.163908	0.082807	-0.133955	1.345543	0.044105	0.044775	1.314631	0.092040
3778	37.780000	-0.039778	1.442738	-0.083256	-0.030864	1.216382	-0.066884	-0.207141	1.096816	0.107838	-0.182759	1.064034	0.054087	-0.108992	1.095456	0.319026	-0.089452	1.135018	0.299219	-0.162890	1.358092	0.047219	-0.161815	1.108386	0.290070	-0.133966	1.115014	0.336637	-0.122798	1.138373	0.326600	-0.142921	1.145620	0.273059	-0.191003	1.206205	0.141965	-0.234646	1.217765	0.101806	-0.229441	1.281121	0.098313	-0.180438	1.278886	0.130943	0.089724	1.339907	0.042840	0.052707	1.294944	0.103931	0.052056	1.339285	0.066849	0.106977	1.295486	0.068754	0.022306	1.366390	-0.002211	0.065289	1.163869	0.082894	-0.133943	1.345522	0.044153	0.044764	1.314608	0.092146
3779	37.790000	-0.039775	1.442684	-0.083190	-0.030869	1.216330	-0.066792	-0.207189	1.096828	0.107933	-0.182799	1.064028	0.054196	-0.109010	1.095421	0.319066	-0.089452	1.134971	0.299254	-0.162888	1.358057	0.047297	-0.161832	1.108384	0.290121	-0.133972	1.114980	0.336674	-0.122799	1.138344	0.326638	-0.142918	1.145604	0.273090	-0.191027	1.206215	0.142019	-0.234671	1.217797	0.101866	-0.229449	1.281143	0.098371	-0.180500	1.279031	0.130831	0.089726	1.339895	0.042929	0.052701	1.294903	0.103952	0.052061	1.339250	0.066914	0.106974	1.295451	0.068839	0.022307	1.366344	-0.002138	0.065285	1.163831	0.082990	-0.133932	1.345505	0.044202	0.044804	1.314573	0.092311
3780	37.800000	-0.039779	1.442625	-0.083126	-0.030876	1.216273	-0.066694	-0.207236	1.096843	0.108022	-0.182834	1.064026	0.054301	-0.109039	1.095381	0.319105	-0.089457	1.134916	0.299287	-0.162886	1.358020	0.047380	-0.161854	1.108360	0.290177	-0.133979	1.114957	0.336718	-0.122790	1.138323	0.326664	-0.142933	1.145582	0.273126	-0.191067	1.206226	0.142078	-0.234701	1.217819	0.101928	-0.229458	1.281165	0.098424	-0.180531	1.279095	0.130826	0.089727	1.339834	0.042995	0.052676	1.294881	0.104040	0.052059	1.339206	0.066983	0.106966	1.295421	0.068928	0.022306	1.366295	-0.002065	0.065285	1.163795	0.083092	-0.133923	1.345494	0.044254	0.044825	1.314533	0.092412
3781	37.810000	-0.039790	1.442554	-0.083065	-0.030889	1.216206	-0.066585	-0.207287	1.096859	0.108108	-0.182874	1.064027	0.054401	-0.109073	1.095340	0.319144	-0.089463	1.134856	0.299316	-0.162885	1.357980	0.047472	-0.161878	1.108367	0.290233	-0.134010	1.114932	0.336763	-0.122812	1.138313	0.326756	-0.142933	1.145576	0.273170	-0.191121	1.206232	0.142147	-0.234734	1.217840	0.101955	-0.229481	1.281180	0.098473	-0.180496	1.278947	0.131071	0.089712	1.339798	0.043078	0.052682	1.294848	0.104115	0.052067	1.339165	0.067060	0.106972	1.295385	0.069023	0.022302	1.366242	-0.001994	0.065287	1.163760	0.083202	-0.133914	1.345484	0.044309	0.044823	1.314518	0.092504
3782	37.820000	-0.039806	1.442482	-0.083005	-0.030906	1.216137	-0.066472	-0.207334	1.096876	0.108186	-0.182907	1.064032	0.054493	-0.109119	1.095297	0.319186	-0.089476	1.134793	0.299350	-0.162884	1.357940	0.047570	-0.161897	1.108376	0.290279	-0.134031	1.114929	0.336816	-0.122801	1.138292	0.326781	-0.142946	1.145570	0.273206	-0.191168	1.206253	0.142218	-0.234764	1.217850	0.101998	-0.229501	1.281196	0.098512	-0.180570	1.279061	0.131002	0.089721	1.339782	0.043138	0.052673	1.294834	0.104191	0.052067	1.339141	0.067134	0.106965	1.295358	0.069092	0.022296	1.366188	-0.001924	0.065290	1.163725	0.083315	-0.133906	1.345481	0.044371	0.044822	1.314493	0.092582
3783	37.830000	-0.039827	1.442406	-0.082944	-0.030929	1.216066	-0.066353	-0.207381	1.096895	0.108259	-0.182940	1.064041	0.054578	-0.109172	1.095255	0.319232	-0.089494	1.134729	0.299387	-0.162883	1.357902	0.047675	-0.161933	1.108378	0.290319	-0.134059	1.114918	0.336875	-0.122856	1.138294	0.326838	-0.142958	1.145560	0.273249	-0.191232	1.206265	0.142274	-0.234802	1.217865	0.102027	-0.229525	1.281207	0.098548	-0.180592	1.279028	0.131122	0.089701	1.339728	0.043199	0.052674	1.294804	0.104263	0.052070	1.339097	0.067209	0.106957	1.295317	0.069161	0.022289	1.366132	-0.001855	0.065293	1.163691	0.083430	-0.133897	1.345482	0.044440	0.044825	1.314472	0.092667
3784	37.840000	-0.039850	1.442330	-0.082883	-0.030958	1.215994	-0.066230	-0.207426	1.096914	0.108325	-0.182972	1.064054	0.054655	-0.109231	1.095217	0.319282	-0.089519	1.134670	0.299429	-0.162882	1.357867	0.047787	-0.161975	1.108395	0.290378	-0.134098	1.114912	0.336922	-0.122687	1.138181	0.326804	-0.142979	1.145552	0.273287	-0.191290	1.206272	0.142330	-0.234832	1.217883	0.102059	-0.229546	1.281227	0.098585	-0.180668	1.279151	0.131068	0.089702	1.339661	0.043251	0.052644	1.294767	0.104325	0.052089	1.339058	0.067281	0.106957	1.295268	0.069255	0.022280	1.366076	-0.001785	0.065294	1.163657	0.083547	-0.133887	1.345488	0.044517	0.044830	1.314442	0.092736
3785	37.850000	-0.039873	1.442259	-0.082817	-0.030993	1.215926	-0.066109	-0.207467	1.096934	0.108384	-0.182998	1.064071	0.054722	-0.109299	1.095183	0.319339	-0.089553	1.134617	0.299482	-0.162879	1.357839	0.047903	-0.162034	1.108417	0.290445	-0.134158	1.114907	0.336982	-0.122664	1.138143	0.326819	-0.143009	1.145545	0.273341	-0.191347	1.206291	0.142386	-0.234849	1.217901	0.102092	-0.229568	1.281241	0.098615	-0.180699	1.279150	0.131148	0.089677	1.339620	0.043319	0.052891	1.294798	0.104460	0.052086	1.339031	0.067333	0.106948	1.295207	0.069336	0.022271	1.366021	-0.001716	0.065291	1.163621	0.083658	-0.133876	1.345500	0.044604	0.044838	1.314393	0.092815
